<?xml version="1.0" encoding="UTF-8" standalone="no"?>
<!-- Created with Inkscape (http://www.inkscape.org/) -->

<svg
   xmlns:dc="http://purl.org/dc/elements/1.1/"
   xmlns:cc="http://creativecommons.org/ns#"
   xmlns:rdf="http://www.w3.org/1999/02/22-rdf-syntax-ns#"
   xmlns:svg="http://www.w3.org/2000/svg"
   xmlns="http://www.w3.org/2000/svg"
   xmlns:sodipodi="http://sodipodi.sourceforge.net/DTD/sodipodi-0.dtd"
   xmlns:inkscape="http://www.inkscape.org/namespaces/inkscape"
   width="20.125999mm"
   height="8.6610003mm"
   viewBox="0 0 20.125999 8.6610003"
   version="1.1"
   id="svg8"
   inkscape:version="0.92.3 (2405546, 2018-03-11)"
   sodipodi:docname="lhr.svg">
  <defs
     id="defs2" />
  <sodipodi:namedview
     id="base"
     pagecolor="#ffffff"
     bordercolor="#666666"
     borderopacity="1.0"
     inkscape:pageopacity="0.0"
     inkscape:pageshadow="2"
     inkscape:zoom="11.2"
     inkscape:cx="21.831529"
     inkscape:cy="8.1836748"
     inkscape:document-units="mm"
     inkscape:current-layer="layer1"
     showgrid="true"
     showguides="false"
     inkscape:window-width="2560"
     inkscape:window-height="1376"
     inkscape:window-x="1920"
     inkscape:window-y="27"
     inkscape:window-maximized="1">
    <inkscape:grid
       type="xygrid"
       id="grid1044" />
  </sodipodi:namedview>
  <metadata
     id="metadata5">
    <rdf:RDF>
      <cc:Work
         rdf:about="">
        <dc:format>image/svg+xml</dc:format>
        <dc:type
           rdf:resource="http://purl.org/dc/dcmitype/StillImage" />
        <dc:title></dc:title>
      </cc:Work>
    </rdf:RDF>
  </metadata>
  <g
     inkscape:label="Layer 1"
     inkscape:groupmode="layer"
     id="layer1"
     style="display:inline"
     transform="translate(0,-288.339)">
    <text
       xml:space="preserve"
       style="font-style:normal;font-variant:normal;font-weight:bold;font-stretch:normal;font-size:50.79999924px;line-height:1.25;font-family:sans-serif;-inkscape-font-specification:'sans-serif Bold';letter-spacing:0px;word-spacing:0px;fill:#000000;fill-opacity:1;stroke:none;stroke-width:0.26458332"
       x="-6.5389886"
       y="294.60724"
       id="text12"><tspan
         sodipodi:role="line"
         id="tspan10"
         x="-6.5389886"
         y="339.55334"
         style="stroke-width:0.26458332"></tspan></text>
    <g
       id="g173"
       transform="matrix(0.26458333,0,0,0.26458333,0,287.33026)">
      <path
         id="path150"
         d="m 34,29.096 c -0.417,-0.963 -0.896,-2.008 -2,-2.008 h -1 c 1.104,0 2,-0.899 2,-2.008 V 8.008 C 33,6.899 32.104,6 31,6 H 5 C 3.896,6 3,6.899 3,8.008 V 25.08 c 0,1.109 0.896,2.008 2,2.008 H 4 c -1.104,0 -1.667,1.004 -2,2.008 L 0,33.991 C 0,35.101 0.896,36 2,36 h 32 c 1.104,0 2,-0.899 2,-2.008 z"
         inkscape:connector-curvature="0"
         style="fill:#ccd6dd" />
      <path
         id="path152"
         d="m 0.008,34.075 0.006,0.057 0.17,0.692 C 0.5,35.516 1.192,36 2,36 h 32 c 1.076,0 1.947,-0.855 1.992,-1.925 z"
         inkscape:connector-curvature="0"
         style="fill:#9aaab4" />
      <path
         id="path154"
         d="m 31,24.075 c 0,0.555 -0.447,1.004 -1,1.004 H 6 c -0.552,0 -1,-0.449 -1,-1.004 V 9.013 C 5,8.458 5.448,8.009 6,8.009 h 24 c 0.553,0 1,0.45 1,1.004 z"
         inkscape:connector-curvature="0"
         style="fill:#5dadec" />
      <path
         id="path156"
         d="m 32.906,31.042 -0.76,-2.175 C 31.907,28.407 31.511,28.03 30.958,28.03 H 5.11 c -0.552,0 -0.906,0.408 -1.156,1.036 l -0.688,1.977 c -0.219,0.596 0.448,1.004 1,1.004 h 7.578 c 0,0 0.937,-0.047 1.103,-0.608 0.192,-0.648 0.415,-1.624 0.463,-1.796 0.074,-0.264 0.388,-0.531 0.856,-0.531 h 8.578 c 0.5,0 0.746,0.253 0.811,0.566 0.042,0.204 0.312,1.141 0.438,1.782 0.111,0.571 1.221,0.586 1.221,0.586 h 6.594 c 0.551,0 1.217,-0.471 0.998,-1.004 z"
         inkscape:connector-curvature="0"
         style="fill:#aebbc1" />
      <path
         id="path158"
         d="m 22.375,33.113 h -7.781 c -0.375,0 -0.538,-0.343 -0.484,-0.675 0.054,-0.331 0.359,-1.793 0.383,-1.963 0.023,-0.171 0.274,-0.375 0.524,-0.375 h 7.015 c 0.297,0 0.49,0.163 0.55,0.489 0.059,0.327 0.302,1.641 0.321,1.941 0.019,0.301 -0.169,0.583 -0.528,0.583 z"
         inkscape:connector-curvature="0"
         style="fill:#9aaab4" />
    </g>
    <g
       id="g231"
       transform="matrix(0.26458333,0,0,0.2430333,11.83984,288.27291)"
       style="stroke-width:1.04339409">
      <path
         id="path175"
         d="m 13.483,21.579 c -0.58,0.32 -2.256,1.279 -3.282,2.204 -0.596,0.537 -0.518,0.928 -0.329,1.871 l 0.017,0.085 c 0.186,0.932 2.106,7.039 2.483,8.232 L 13.54,33.68 c 0.014,-0.621 0.043,-2.801 -0.18,-4.205 -0.074,-0.47 -0.149,-1.036 -0.217,-1.549 -0.07,-0.532 -0.138,-1.035 -0.184,-1.273 -0.077,-0.396 0.05,-0.65 0.411,-0.825 0.772,-0.374 1.437,-0.671 1.764,-0.814 z m 10.673,5.408 c -0.533,-0.065 -1.037,-0.128 -1.278,-0.143 -0.403,-0.025 -0.618,-0.212 -0.695,-0.606 -0.168,-0.842 -0.288,-1.56 -0.345,-1.912 l -3.74,0.733 c 0.164,0.643 0.671,2.505 1.308,3.732 0.369,0.711 0.767,0.734 1.726,0.789 l 0.088,0.005 c 0.95,0.057 7.342,-0.266 8.593,-0.33 L 29.826,28.05 C 29.229,27.881 27.127,27.304 25.712,27.165 25.236,27.121 24.67,27.051 24.156,26.987 Z"
         inkscape:connector-curvature="0"
         style="fill:#d4ab88;stroke-width:1.04339409" />
      <path
         id="path177"
         d="m 28.11,29.77 -0.166,-0.306 c -0.021,-0.049 0.003,-0.106 0.054,-0.123 0.16,-0.055 0.483,-0.203 0.596,-0.262 -0.098,0.224 -0.21,0.582 -0.335,0.69 -0.048,0.041 -0.124,0.059 -0.149,0.001 z"
         inkscape:connector-curvature="0"
         style="fill:#8899a6;stroke-width:1.04339409" />
      <path
         id="path179"
         d="M 30.53,27.396 C 30.4,27.292 30.103,27.241 29.917,27.223 29.788,27.21 29.453,27.2 29.171,27.216 c -0.127,0.007 -0.272,0.023 -0.331,0.04 -0.185,0.054 -0.266,0.131 -0.31,0.185 -0.053,0.065 -0.058,0.134 -0.046,0.169 0.049,0.143 0.284,0.39 0.386,0.625 0.034,0.078 0.054,0.155 0.047,0.226 -0.025,0.258 -0.354,0.633 -0.6,0.911 -0.148,0.167 -0.266,0.299 -0.271,0.35 -0.005,0.055 0.01,0.102 0.035,0.148 v 0.002 c 0.067,0.123 0.214,0.251 0.314,0.587 0.065,0.217 0.369,1.205 0.369,1.205 0.073,0.252 0.17,0.313 0.211,0.449 0.085,0.277 0.235,1.021 0.309,1.256 0.074,0.235 0.253,0.336 0.39,0.355 0.138,0.019 0.217,-0.013 0.217,-0.013 0,0 0.322,-0.145 0.535,-1.352 0.154,-0.872 0.018,-1.007 -0.098,-2.317 -0.114,-1.312 0.202,-2.646 0.202,-2.646 z"
         inkscape:connector-curvature="0"
         style="fill:#be1931;stroke-width:1.04339409" />
      <path
         id="path181"
         d="m 30.261,29.344 c -0.219,-0.09 -0.72,-0.42 -0.86,-0.775 -0.127,-0.321 -0.213,-1.188 -0.229,-1.353 0.269,-0.024 0.682,-0.006 0.815,0.006 0.175,0.017 0.377,0.031 0.498,0.134 l 0.046,0.04 c -10e-4,0 -0.215,1.376 -0.27,1.948 z"
         inkscape:connector-curvature="0"
         style="fill:#dd2e44;stroke-width:1.04339409" />
      <path
         id="path183"
         d="m 28.337,30.337 c -0.075,0 -0.146,-0.042 -0.181,-0.115 -0.048,-0.1 -0.005,-0.219 0.095,-0.266 l 0.319,-0.151 c 0.104,-0.048 0.22,-0.004 0.267,0.095 0.047,0.1 0.005,0.219 -0.095,0.266 l -0.319,0.151 c -0.028,0.014 -0.058,0.02 -0.086,0.02 z m 0.204,0.584 c -0.085,0 -0.163,-0.054 -0.19,-0.139 -0.034,-0.105 0.024,-0.218 0.13,-0.251 l 0.354,-0.113 c 0.1,-0.035 0.217,0.024 0.251,0.13 0.034,0.105 -0.024,0.218 -0.13,0.251 l -0.354,0.113 c -0.02,0.006 -0.04,0.009 -0.061,0.009 z m 0.172,0.595 c -0.094,0 -0.177,-0.065 -0.196,-0.16 -0.021,-0.108 0.048,-0.214 0.156,-0.236 l 0.332,-0.068 c 0.114,-0.023 0.214,0.048 0.236,0.156 0.021,0.108 -0.048,0.214 -0.156,0.236 l -0.332,0.068 c -0.014,0.002 -0.027,0.004 -0.04,0.004 z m 2.59,-3.873 c -0.006,-0.027 -0.025,-0.128 -0.095,-0.252 -0.023,-0.042 -0.077,-0.055 -0.131,-0.061 -0.067,-0.009 -0.56,-0.08 -0.569,0.02 0,0 -0.002,0.148 -0.072,0.25 -0.07,0.102 -0.118,0.352 -0.136,0.539 -0.018,0.186 -0.098,0.887 -0.08,1.379 0.018,0.492 0.17,1.383 0.178,1.68 0.007,0.297 0,0.759 -0.063,1.101 -0.063,0.342 -0.131,0.646 -0.183,0.834 -0.067,0.242 -0.157,0.439 -0.26,0.578 0,0 0.389,-0.026 0.687,-0.602 0.235,-0.454 0.367,-0.891 0.416,-1.317 0.004,-0.032 0.105,-1.168 0.154,-1.736 0.035,-0.415 0.095,-1.078 0.095,-1.078 0.075,-0.786 0.093,-1.185 0.059,-1.335 z"
         inkscape:connector-curvature="0"
         style="fill:#ccd6dd;stroke-width:1.04339409" />
      <path
         id="path185"
         d="m 11.438,32.516 0.246,-0.246 c 0.041,-0.034 0.102,-0.027 0.134,0.017 0.098,0.138 0.332,0.406 0.421,0.497 -0.243,-0.03 -0.618,-0.036 -0.757,-0.125 -0.054,-0.035 -0.093,-0.103 -0.044,-0.143 z"
         inkscape:connector-curvature="0"
         style="fill:#8899a6;stroke-width:1.04339409" />
      <path
         id="path187"
         d="m 14.401,34.162 c 0.063,-0.154 0.027,-0.453 -0.008,-0.637 -0.025,-0.127 -0.11,-0.452 -0.205,-0.717 -0.043,-0.119 -0.099,-0.254 -0.132,-0.306 -0.104,-0.162 -0.201,-0.217 -0.266,-0.244 -0.077,-0.033 -0.145,-0.018 -0.175,0.004 -0.123,0.088 -0.294,0.383 -0.489,0.548 -0.065,0.055 -0.133,0.095 -0.204,0.109 -0.254,0.049 -0.707,-0.159 -1.044,-0.317 -0.202,-0.094 -0.362,-0.17 -0.412,-0.16 -0.054,0.011 -0.095,0.038 -0.132,0.075 l -0.002,10e-4 h 10e-4 c -0.099,0.099 -0.18,0.277 -0.474,0.468 -0.189,0.123 -1.051,0.696 -1.051,0.696 -0.221,0.141 -0.252,0.252 -0.37,0.33 -0.242,0.16 -0.912,0.515 -1.117,0.653 -0.204,0.138 -0.251,0.338 -0.23,0.475 0.021,0.137 0.074,0.204 0.074,0.204 0,0 0.23,0.268 1.448,0.129 0.88,-0.1 0.97,-0.269 2.194,-0.752 1.224,-0.483 2.594,-0.559 2.594,-0.559 z"
         inkscape:connector-curvature="0"
         style="fill:#be1931;stroke-width:1.04339409" />
      <path
         id="path189"
         d="m 12.457,34.457 c 0.024,-0.236 0.198,-0.809 0.499,-1.045 0.271,-0.212 1.079,-0.542 1.232,-0.604 0.1,0.251 0.2,0.652 0.225,0.783 0.033,0.173 0.078,0.37 0.013,0.516 l -0.025,0.056 c 0,-10e-4 -1.38,0.184 -1.944,0.294 z"
         inkscape:connector-curvature="0"
         style="fill:#dd2e44;stroke-width:1.04339409" />
      <path
         id="path191"
         d="m 11.385,33.301 c -0.055,0 -0.109,-0.022 -0.149,-0.067 L 11,32.971 c -0.073,-0.082 -0.066,-0.209 0.016,-0.282 0.083,-0.073 0.207,-0.067 0.283,0.016 l 0.235,0.263 c 0.073,0.082 0.066,0.209 -0.016,0.282 -0.039,0.034 -0.085,0.051 -0.133,0.051 z m -0.529,0.406 c -0.063,0 -0.127,-0.031 -0.165,-0.088 l -0.209,-0.308 c -0.062,-0.092 -0.039,-0.216 0.053,-0.278 0.089,-0.061 0.216,-0.039 0.277,0.053 l 0.209,0.308 c 0.062,0.092 0.039,0.216 -0.053,0.278 -0.033,0.024 -0.072,0.035 -0.112,0.035 z m -0.57,0.325 c -0.071,0 -0.141,-0.038 -0.177,-0.106 L 9.95,33.627 c -0.052,-0.098 -0.015,-0.219 0.083,-0.271 0.094,-0.052 0.218,-0.016 0.271,0.083 l 0.159,0.299 c 0.052,0.098 0.015,0.219 -0.083,0.271 -0.029,0.016 -0.062,0.023 -0.094,0.023 z m 4.098,0.941 c 0.024,-0.013 0.116,-0.06 0.215,-0.162 0.033,-0.034 0.031,-0.089 0.022,-0.143 -0.011,-0.067 -0.083,-0.559 -0.181,-0.54 0,0 -0.143,0.04 -0.26,0.002 -0.117,-0.038 -0.371,-0.013 -0.555,0.022 -0.184,0.036 -0.878,0.158 -1.345,0.315 -0.467,0.157 -1.277,0.556 -1.56,0.648 -0.283,0.091 -0.728,0.215 -1.074,0.252 -0.346,0.037 -0.657,0.058 -0.851,0.062 -0.251,0.004 -0.466,-0.025 -0.628,-0.085 0,0 0.136,0.366 0.772,0.488 0.502,0.097 0.959,0.099 1.381,0.025 0.032,-0.006 1.15,-0.231 1.708,-0.346 0.408,-0.084 1.06,-0.215 1.06,-0.215 0.774,-0.151 1.162,-0.247 1.296,-0.323 z"
         inkscape:connector-curvature="0"
         style="fill:#ccd6dd;stroke-width:1.04339409" />
      <path
         id="path193"
         d="m 13.084,21.466 c 0.738,-0.382 3.176,-1.588 4.842,-1.76 0.152,-0.016 1.526,3.904 1.341,3.963 -0.763,0.246 -2.681,0.897 -4.134,1.668 -0.154,0.082 -0.338,0.044 -0.433,-0.09 -0.431,-0.605 -1.549,-2.257 -1.798,-3.436 -0.029,-0.138 0.048,-0.276 0.182,-0.345 z"
         inkscape:connector-curvature="0"
         style="fill:#a0041e;stroke-width:1.04339409" />
      <path
         id="path195"
         d="m 17.882,25.364 c -0.196,-0.795 -0.794,-3.411 -0.586,-5.049 0.019,-0.15 3.69,-0.685 3.69,-0.685 0.175,-0.021 0.6,3.084 1.005,4.655 0.043,0.166 -0.033,0.334 -0.181,0.395 -0.667,0.275 -2.474,0.969 -3.643,0.937 -0.136,-0.004 -0.249,-0.11 -0.285,-0.253 z"
         inkscape:connector-curvature="0"
         style="fill:#be1931;stroke-width:1.04339409" />
      <path
         id="path197"
         d="m 14.801,11.245 c -0.114,0.64 0.259,1.431 1.738,1.741 1.479,0.31 2.554,0.273 3.324,0.218 0.653,-0.047 0.563,0.952 0.711,1.998 0.148,1.05 0.241,2.419 0.182,2.633 -0.1,0.361 -0.722,0.479 -0.439,1.123 0.283,0.643 0.329,0.995 0.942,0.79 0.613,-0.205 1.222,-0.427 1.396,-0.759 0.174,-0.332 -0.43,-1.065 -0.439,-1.463 -0.007,-0.294 0.293,-3.972 0.275,-4.405 -0.022,-0.528 -0.035,-1.251 -0.884,-1.582 -0.849,-0.331 -4.108,-1.174 -4.972,-1.342 -0.912,-0.177 -1.683,0.199 -1.834,1.048 z"
         inkscape:connector-curvature="0"
         style="fill:#d4ab88;stroke-width:1.04339409" />
      <path
         id="path199"
         d="M 16.495,6.612 C 16.805,6.211 17.041,5.74 17.156,5.157 17.565,3.074 16.362,1.084 14.468,0.713 12.575,0.341 9.985,1.742 10.043,3.864 c 0.057,2.107 1.229,5.214 2.993,4.69 0.466,-0.138 0.932,-0.29 1.375,-0.474 0.189,0.224 0.325,1.081 0.247,1.815 -0.2,1.87 2.381,2.065 2.579,0.192 0.157,-1.482 -0.768,-2.424 -0.742,-3.475 z"
         inkscape:connector-curvature="0"
         style="fill:#d4ab88;stroke-width:1.04339409" />
      <path
         id="path201"
         d="M 21.903,2.733 C 20.592,2.719 19.407,1.373 18.058,2.232 17.794,2.4 17.602,2.569 17.454,2.735 17.22,2.024 16.818,1.368 16.155,0.937 15.507,0.515 14.712,0.2 13.961,0.285 9.384,0.801 9.632,4.111 9.98,4.421 c 0.348,0.31 1.299,-0.572 2.002,-0.669 0.328,-0.046 1.041,-0.053 1.419,0.49 0.306,0.44 0.411,1.33 0.411,1.33 0,0 0.012,-1.012 0.041,-1.368 0.027,-0.332 0.356,-0.714 0.801,-0.222 0.387,0.428 0.19,1.268 -0.079,1.356 -0.207,0.068 0.129,0.575 0.648,0.961 0.946,0.704 1.681,0.428 1.786,0.389 0.106,-0.039 0.465,-0.118 0.648,-1.333 0.026,-0.169 0.044,-0.35 0.055,-0.537 0.374,0.324 0.987,0.709 1.827,0.715 0.929,0.007 2.619,-0.466 3.586,-1.621 0.744,-0.889 1.05,-2.355 1.05,-2.355 -0.395,0.738 -1.283,1.187 -2.272,1.176 z"
         inkscape:connector-curvature="0"
         style="fill:#963b22;stroke-width:1.04339409" />
      <path
         id="path203"
         d="M 19.624,10.939 C 18.896,9.236 17.841,8.342 16.395,8.825 c -1.285,0.43 -1.922,1.151 -2.301,1.96 -0.184,0.393 -0.901,1.933 -0.466,2.933 0.851,1.956 2.243,5.863 2.488,7.059 0,0 0.322,0.326 2.403,0.064 1.823,-0.23 2.732,-0.404 2.732,-0.404 -0.277,-2.594 -0.452,-6.747 -1.627,-9.498 z"
         inkscape:connector-curvature="0"
         style="fill:#dd2e44;stroke-width:1.04339409" />
      <path
         id="path205"
         d="m 17.202,11.067 c -0.577,-0.372 -1.499,-0.331 -2.404,0.983 -0.905,1.314 -1.308,2.376 -1.568,3.148 -0.221,0.655 -1.157,0.16 -2.236,-0.122 C 9.911,14.792 8.539,14.324 8.355,14.179 8.044,13.934 8.183,13.281 7.441,13.293 6.699,13.306 6.338,13.207 6.288,13.888 c -0.05,0.681 -0.083,1.364 0.17,1.669 0.253,0.305 1.212,0.016 1.604,0.169 0.289,0.113 3.749,1.905 4.178,2.064 0.524,0.194 1.233,0.476 1.901,-0.216 0.668,-0.692 2.819,-3.522 3.335,-4.296 0.543,-0.814 0.491,-1.718 -0.274,-2.211 z"
         inkscape:connector-curvature="0"
         style="fill:#d4ab88;stroke-width:1.04339409" />
    </g>
    <circle
       style="fill-opacity:1;stroke:#000000;stroke-width:0;stroke-miterlimit:4;stroke-dasharray:none;stroke-opacity:1"
       id="path1042"
       cx="11.589719"
       cy="296.12228"
       r="0.75" />
  </g>
</svg>
